<svg width="78" height="13" viewBox="0 0 78 13" fill="none" xmlns="http://www.w3.org/2000/svg">
<path d="M12.5058 7.15792C11.9726 10.0334 9.40785 12.3787 6.37667 12.3787C5.0369 12.3787 3.77749 11.9598 2.74198 11.2445V11.2459L0 12.3536L1.07283 9.55274C0.435589 8.59711 0.0617144 7.45781 0.0617144 6.22955C0.0617144 2.81094 2.95727 0 6.37667 0C9.55855 0 12.18 2.39984 12.528 5.48843C9.24711 5.44467 8.24891 4.87143 7.60594 4.42303C7.48323 4.33766 7.35262 4.27309 7.22058 4.22574C6.94 4.10234 6.63071 4.03418 6.30491 4.03418C5.04623 4.03418 4.14993 4.80758 4.14993 6.06526C4.14993 7.32293 5.10866 8.09634 6.36663 8.09634C6.56253 8.09634 6.75342 8.07123 6.93569 8.02459C7.26436 7.95428 7.47677 7.8359 7.47677 7.8359C9.48823 6.72746 11.9898 6.99148 12.5051 7.15792H12.5058Z" fill="#FCBBFF"/>
<path d="M14.6455 6.1662C14.6455 3.43849 16.5737 1.48633 19.2282 1.48633C21.7211 1.48633 23.0925 2.91978 23.2798 4.72701H21.5346C21.2152 3.84241 20.3727 3.16801 19.2669 3.16801C17.6444 3.16801 16.5508 4.38408 16.5508 6.1662C16.5508 7.94833 17.6444 9.17659 19.2669 9.17659C20.3727 9.17659 21.1844 8.52515 21.5037 7.64055L23.2798 7.65561C23.0925 8.83939 22.1582 10.8963 19.2669 10.8963C16.6369 10.8963 14.6462 8.881 14.6462 6.1662H14.6455Z" fill="#FCBBFF"/>
<path d="M30.1251 6.30567V10.6304H28.2816V6.69882C28.2816 5.9369 27.7778 5.43326 27.0523 5.43326C26.3268 5.43326 25.823 5.9369 25.823 6.69882V10.6304H23.9795V1.47656H25.823V4.53574C26.1919 4.0199 26.8306 3.77381 27.5805 3.77381C29.0917 3.77381 30.1244 4.7811 30.1244 6.30495L30.1251 6.30567Z" fill="#FCBBFF"/>
<path d="M30.7375 7.28309C30.7375 5.25559 32.3349 3.78125 34.3263 3.78125C36.3177 3.78125 37.9151 5.25559 37.9151 7.28309C37.9151 9.31058 36.3177 10.7849 34.3263 10.7849C32.3349 10.7849 30.7375 9.31058 30.7375 7.28309ZM36.0098 7.28309C36.0098 6.2141 35.3338 5.43998 34.3263 5.43998C33.3188 5.43998 32.6428 6.2141 32.6428 7.28309C32.6428 8.35208 33.3188 9.1262 34.3263 9.1262C35.3338 9.1262 36.0098 8.36427 36.0098 7.28309Z" fill="#FCBBFF"/>
<path d="M48.6785 3.91699L46.3678 10.6258H44.7453L43.2089 6.15326L41.6603 10.6258H40.0378L37.7271 3.91699H39.6316L40.873 7.92247L42.1755 3.91699H44.2279L45.5303 7.92247L46.7596 3.91699H48.677H48.6785Z" fill="#FCBBFF"/>
<path d="M55.6663 1.47728V10.6311H53.9455V9.99189C53.4661 10.5077 52.7291 10.7782 51.9053 10.7782C49.9513 10.7782 48.4888 9.22996 48.4888 7.27637C48.4888 5.32277 49.9879 3.77453 51.8931 3.77453C52.6918 3.77453 53.3678 4.03281 53.8228 4.48695V1.47656H55.6663V1.47728ZM53.6333 7.28785C53.6333 6.20666 53.1224 5.43326 52.127 5.43326C51.1317 5.43326 50.5167 6.21886 50.5167 7.28785C50.5167 8.35684 51.1195 9.11948 52.127 9.11948C53.1346 9.11948 53.6333 8.38123 53.6333 7.28785Z" fill="#FCBBFF"/>
<path d="M62.8476 7.79915H58.1286C58.2392 8.64716 58.8412 9.1874 59.7512 9.1874C60.4027 9.1874 60.8513 8.9327 61.1096 8.47856H62.8548C62.5434 9.91201 61.2345 10.722 59.7268 10.7851C57.6026 10.8741 56.2119 9.21251 56.2119 7.27111C56.2119 5.32971 57.6866 3.75995 59.604 3.78147C61.6708 3.80514 62.8548 5.25223 62.8548 7.10753C62.8548 7.37801 62.8548 7.60615 62.8484 7.79915H62.8476ZM60.9797 6.44748C60.9058 5.73506 60.3654 5.25581 59.6033 5.25581C58.8412 5.25581 58.3497 5.67336 58.1652 6.44748H60.9797Z" fill="#FCBBFF"/>
<path d="M63.4961 7.26437C63.4961 5.27419 65.021 3.70442 67.0475 3.77473C69.5305 3.86083 70.0285 5.29428 70.2782 6.60289L68.6083 6.60074C68.3995 5.88832 67.7974 5.43346 67.0475 5.43346C66.0766 5.43346 65.4006 6.19538 65.4006 7.27657C65.4006 8.35776 66.0766 9.11968 67.0475 9.11968C67.8096 9.11968 68.3995 8.66482 68.6083 7.9524L70.2782 7.97392C70.0909 9.22012 69.2183 10.7784 67.0475 10.7784C65.0318 10.7784 63.4961 9.26675 63.4961 7.26437Z" fill="#FCBBFF"/>
<path d="M74.8214 6.62565L77.2548 10.6311H75.252L73.6294 7.94L72.6958 8.94729V10.6304H70.8523V1.47656H72.6958V6.46494L75.1048 3.92161H77.2555L74.8221 6.62493L74.8214 6.62565Z" fill="#FCBBFF"/>
</svg>
