<svg width="12" height="17" class="mr-2" viewBox="0 0 12 17" fill="none" xmlns="http://www.w3.org/2000/svg"><path d="M6 1.9195e-06C5.21189 -0.000626077 4.43139 0.152847 3.70315 0.45164C2.97491 0.750433 2.31323 1.18868 1.75595 1.74132C1.19867 2.29395 0.756739 2.95012 0.455435 3.67229C0.154131 4.39446 -0.000631338 5.16846 1.93563e-06 5.95C1.93563e-06 10.4125 6 17 6 17C6 17 12 10.4125 12 5.95C12.0006 5.16846 11.8459 4.39446 11.5446 3.67229C11.2433 2.95012 10.8013 2.29395 10.2441 1.74132C9.68678 1.18868 9.02509 0.750433 8.29685 0.45164C7.56861 0.152847 6.78811 -0.000626077 6 1.9195e-06ZM6 8.075C5.57618 8.075 5.16188 7.95037 4.80949 7.71687C4.4571 7.48338 4.18245 7.1515 4.02026 6.7632C3.85807 6.37491 3.81564 5.94764 3.89832 5.53543C3.981 5.12323 4.18509 4.74459 4.48477 4.4474C4.78446 4.15021 5.16628 3.94783 5.58195 3.86583C5.99762 3.78384 6.42848 3.82592 6.82004 3.98676C7.21159 4.14759 7.54626 4.41996 7.78172 4.76941C8.01718 5.11887 8.14286 5.52972 8.14286 5.95C8.14254 6.51349 7.91667 7.05381 7.51488 7.45225C7.11308 7.8507 6.56822 8.07469 6 8.075Z" fill="#02C27F"></path></svg>