<svg width="16" height="16" viewBox="0 0 24 24" fill="none" xmlns="http://www.w3.org/2000/svg"><path d="M11.9999 20L11.26 20.6727C11.4495 20.8812 11.7182 21 11.9999 21C12.2816 21 12.5503 20.8812 12.7398 20.6727L11.9999 20ZM19.3717 11.8911L20.1116 12.5637L19.3717 11.8911ZM13.14 6.57493L13.9208 7.19962V7.19962L13.14 6.57493ZM11.9999 8.00001L11.219 8.6247C11.4088 8.86192 11.6961 9.00001 11.9999 9.00001C12.3037 9.00001 12.591 8.86192 12.7808 8.6247L11.9999 8.00001ZM10.8598 6.57493L11.6407 5.95023V5.95023L10.8598 6.57493ZM4.62813 11.8911L3.88819 12.5637H3.88819L4.62813 11.8911ZM4.76267 6.23724L4.05557 5.53013V5.53013L4.76267 6.23724ZM19.2371 6.23724L18.53 6.94434V6.94434L19.2371 6.23724ZM12.7398 20.6727L20.1116 12.5637L18.6317 11.2184L11.26 19.3273L12.7398 20.6727ZM12.3591 5.95023L11.219 7.37531L12.7808 8.6247L13.9208 7.19962L12.3591 5.95023ZM12.7808 7.37531L11.6407 5.95023L10.079 7.19962L11.219 8.6247L12.7808 7.37531ZM3.88819 12.5637L11.26 20.6727L12.7398 19.3273L5.36807 11.2184L3.88819 12.5637ZM4.05557 5.53013C2.13148 7.45422 2.0578 10.5503 3.88819 12.5637L5.36807 11.2184C4.25582 9.9949 4.30059 8.11354 5.46978 6.94434L4.05557 5.53013ZM11.6407 5.95023C9.74274 3.57777 6.20393 3.38177 4.05557 5.53013L5.46978 6.94434C6.77526 5.63887 8.92565 5.75797 10.079 7.19962L11.6407 5.95023ZM19.9442 5.53013C17.7959 3.38177 14.2571 3.57776 12.3591 5.95023L13.9208 7.19962C15.0742 5.75797 17.2246 5.63887 18.53 6.94434L19.9442 5.53013ZM20.1116 12.5637C21.942 10.5503 21.8683 7.45422 19.9442 5.53013L18.53 6.94434C19.6992 8.11354 19.744 9.9949 18.6317 11.2184L20.1116 12.5637Z" fill="#fff"></path></svg>