<svg width="613" height="170" viewBox="0 0 613 170" fill="none" xmlns="http://www.w3.org/2000/svg">
<g clip-path="url(#clip0_13064_64893)">
<path d="M613 -12H0V208.344H613V-12Z" fill="#990038"/>
<path d="M-50.3648 54.6117L-50.1957 54.5694L-50.0305 54.514L511.857 -133.849C511.859 -133.85 511.861 -133.851 511.863 -133.851C522.746 -137.477 534.156 -127.93 532.037 -116.62L532.028 -116.572L532.02 -116.524L487.514 153.497L487.5 153.583L487.489 153.669C486.82 159.023 482.756 163.457 477.329 165.836L-84.3784 354.139C-95.2626 357.77 -106.678 348.222 -104.559 336.91L-104.55 336.862L-104.542 336.814L-60.0352 66.793L-60.0211 66.7072L-60.0103 66.6208C-59.2592 60.6077 -55.6274 55.9283 -50.3648 54.6117Z" stroke="#FFB3CE" stroke-width="8.89983"/>
<path d="M430.393 133.012L430.586 208.697L518.126 282.933L517.872 183.391L430.393 133.012Z" fill="#FFB3CE"/>
<path d="M517.872 183.395L834.927 131.099L835.149 218.094L518.126 282.937L517.872 183.395Z" fill="#FF99BD"/>
<path d="M517.871 183.396L517.788 150.96L425 103.109L425.07 130.373L517.871 183.396Z" fill="#FFB3CE"/>
<path d="M517.786 150.962L840.26 107.629L840.323 132.225L517.869 183.398L517.786 150.962Z" fill="#FF99BD"/>
<path d="M425.001 103.103C428.297 102.952 737.81 76.1143 737.81 76.1143L840.252 107.63L517.789 150.963L424.991 103.103L425.001 103.103Z" fill="#FFCCDE"/>
<path d="M834.93 133.074L517.88 183.382L517.904 192.46C517.904 192.46 745.71 155.728 783.906 154.951C822.103 154.174 834.992 157.204 834.992 157.204L834.93 133.064L834.93 133.074Z" fill="#660025"/>
<path d="M517.881 183.778L429.975 132.953L430.406 139.017L517.893 192.47L517.881 183.778Z" fill="#80002E"/>
<path d="M581.561 132.339C589.565 133.028 597.573 131.02 605.082 128.181C616.137 123.994 626.487 117.953 635.576 110.373C638.471 107.952 641.345 105.328 644.892 104.041C650.212 102.11 656.21 103.535 661.298 106.017C666.386 108.499 670.918 111.987 675.986 114.52C686.802 119.908 699.543 120.586 711.384 118.182C715.885 117.268 721.052 115.145 721.903 110.639C722.484 107.595 720.711 104.486 718.241 102.616C715.772 100.745 712.706 99.8709 709.712 99.0874C702.516 97.2091 695.25 95.6352 687.973 94.0918C672.923 90.8947 657.559 87.7998 642.247 89.3401C625.232 91.0571 609.377 98.3904 593.019 103.402C587.04 105.233 580.938 106.78 575.264 109.412C572.073 110.891 569.015 112.744 566.363 115.064C564.946 116.305 563.641 117.677 562.529 119.191C561.125 121.112 561.075 121.569 562.672 123.39C567.382 128.795 574.51 131.728 581.561 132.339Z" fill="#6748A3"/>
<path d="M583.166 32.4608C588.519 27.6698 598.518 30.9508 609.232 40.0013C614.721 44.6327 635.477 65.8392 639.439 72.3103C641.364 75.4497 643.137 78.7416 644.039 82.3096C644.941 85.8776 644.91 89.7929 643.326 93.1136C642.903 93.9971 642.337 94.8607 641.455 95.2889C640.746 95.6255 639.935 95.6377 639.154 95.5992C635.035 95.417 631.006 94.2608 627.228 92.5868C622.222 90.3783 617.67 87.2862 613.149 84.2143C603.557 77.6966 593.854 71.0779 586.245 62.3237C583.02 58.6197 580.149 54.4379 578.92 49.6841C576.604 40.744 578.592 36.5601 583.166 32.4709L583.166 32.4608Z" fill="#D1A033"/>
<path d="M610.394 65.3913C600.036 56.7051 578.904 39.2626 585.821 30.8466C579.535 32.1103 572.519 41.0235 568.668 46.4497C564.929 51.7133 561.74 57.9998 562.76 64.3872C563.482 68.9193 566.292 72.9287 569.798 75.8814C573.305 78.8443 577.489 80.8825 581.693 82.7178C597.128 89.4741 613.51 94.0573 630.211 96.2663C632.961 96.6346 635.781 96.9317 638.488 96.3365C642.269 95.5053 645.337 93.55 642.814 90.5237C640.179 87.3557 635.101 84.9243 631.788 82.4072C624.512 76.9182 617.387 71.236 610.404 65.3812L610.394 65.3913Z" fill="#EFC335"/>
<path d="M557.75 86.4058C558.858 79.3131 568.666 75.5149 582.694 75.7326C589.876 75.8461 619.37 79.0976 626.527 81.5947C630.009 82.8029 633.461 84.2242 636.418 86.4177C639.375 88.6111 641.838 91.6579 642.709 95.2361C642.945 96.1788 643.049 97.2232 642.635 98.1067C642.302 98.8176 641.675 99.3365 641.057 99.8046C637.757 102.268 633.897 103.931 629.924 105.026C624.653 106.48 619.167 106.981 613.722 107.461C602.171 108.495 590.469 109.519 579.043 107.57C574.193 106.741 569.331 105.333 565.368 102.432C557.909 96.9743 556.802 92.4939 557.75 86.4261L557.75 86.4058Z" fill="#D1A033"/>
<path d="M599.683 94.6626C586.172 94.5045 558.766 94.392 558.789 83.4984C554.724 88.4687 554.945 99.7977 555.399 106.44C555.841 112.89 557.36 119.763 562.189 124.061C565.615 127.116 570.324 128.432 574.919 128.502C579.504 128.571 584.035 127.495 588.454 126.256C604.671 121.711 620.254 114.876 634.573 106.005C636.932 104.548 639.302 102.99 641.021 100.815C643.417 97.7763 644.554 94.3248 640.688 93.5739C636.649 92.7931 631.175 94.1257 627.017 94.2885C617.91 94.6465 608.791 94.7712 599.683 94.6626Z" fill="#F4BE38"/>
<path opacity="0.39" d="M558.078 94.9986C558.754 101.793 559.958 108.545 561.669 115.153C562.161 117.049 562.713 118.985 563.864 120.574C565.624 122.994 568.559 124.305 571.472 124.957C572.751 125.248 574.343 125.315 575.101 124.238C576.001 122.947 574.941 121.246 574.015 119.98C571.979 117.176 570.45 114.005 569.528 110.66C568.955 108.572 568.615 106.342 569.218 104.261C569.821 102.18 571.561 100.32 573.711 100.142C575.171 100.016 576.603 100.662 578.074 100.638C579.544 100.624 581.225 99.3922 580.775 97.9936C580.386 96.7876 578.844 96.5278 577.586 96.4195C573.071 96.005 568.545 94.7994 564.482 92.7609C563.314 92.1756 561.454 90.4257 560.054 90.6321C558.027 90.9314 557.921 93.4269 558.078 94.9784L558.078 94.9986Z" fill="white"/>
<path opacity="0.39" d="M578.58 40.863C572.64 46.4365 568.43 53.8313 566.655 61.7879C566.434 62.7825 566.315 63.9898 567.088 64.6471C567.698 65.1628 568.651 65.0893 569.33 64.6616C570.008 64.244 570.473 63.5532 570.897 62.8725C573.2 59.1137 574.974 54.5956 578.904 52.5975C580.515 51.782 582.421 51.4424 583.746 50.2117C585.153 48.8997 585.594 46.7787 585.183 44.9033C584.496 41.7608 581.757 37.883 578.58 40.863Z" fill="white"/>
<path d="M471.731 32.8396C474.024 32.7932 706.956 17.3283 706.956 17.3283L777.704 37.6463L553.41 59.8036L471.731 32.8396Z" fill="#FFCCDE"/>
<path d="M765.122 96.6837L788.829 105.833L552.949 142.839L469.677 99.4371L586.577 88.8027L765.122 96.6837Z" fill="#990038"/>
<path d="M475.15 50.9816L474.178 99.2033L552.168 139.535L553.11 79.4055L475.15 50.9816Z" fill="#FFB3CE"/>
<path d="M553.11 79.4028L773.738 51.7573L772.919 104.31L552.168 139.532L553.11 79.4028Z" fill="#FF99BD"/>
<path d="M553.11 79.3999L553.415 59.803L471.736 32.839L471.466 50.0928L553.11 79.3999Z" fill="#FFB3CE"/>
<path d="M553.416 59.8041L777.71 37.6366L777.474 52.4965L553.111 79.4009L553.416 59.8041Z" fill="#FF99BD"/>
<path d="M773.72 52.9591L553.109 79.4076L553.022 84.8952C553.022 84.8952 711.546 65.543 738.06 65.5462C764.573 65.5495 773.494 67.5452 773.494 67.5452L773.72 52.9591Z" fill="#660025"/>
<path d="M553.107 79.4081L475.147 50.9842L475.085 54.6054L553.02 84.8855L553.107 79.4081Z" fill="#80002E"/>
</g>
<defs>
<clipPath id="clip0_13064_64893">
<rect y="-12" width="613" height="220.344" rx="19.935" fill="white"/>
</clipPath>
</defs>
</svg>
