<svg width="613" height="169" viewBox="0 0 613 169" fill="none" xmlns="http://www.w3.org/2000/svg">
<g clip-path="url(#clip0_3090_35348)">
<rect width="613" height="169" rx="16" fill="#300759"/>
<path d="M418.998 -70.3945L591.044 163.22C593.208 166.158 595.135 169.267 596.803 172.513C620.214 218.043 587.183 272.264 535.986 272.264C498.201 272.264 467.57 302.894 467.57 340.679L467.57 349.297" stroke="#EA0B8D" stroke-opacity="0.6" stroke-width="20.7498"/>
<path d="M266.278 -70.2928L294.792 267.219C295.404 274.462 297.225 281.551 300.179 288.193C319.975 332.702 380.41 339.803 410.941 301.845C435.286 271.578 480.753 268.301 508.664 295.316L566.995 351.777" stroke="#EA0B8D" stroke-opacity="0.6" stroke-width="20.7498"/>
<path d="M552.646 -92.6992C552.646 -89.4941 552.646 -9.22307 552.646 45.0854C552.646 66.4293 569.949 83.7065 591.293 83.7065L593.343 83.7065C613.555 83.7065 629.939 67.3218 629.939 47.1101C629.939 24.0335 608.842 6.71677 586.208 11.216L529.051 22.5777C511.517 26.0633 495.541 35.025 483.426 48.1718L436.206 99.4132C419.216 117.851 392.225 123.128 369.541 112.449C349.427 102.979 336.589 82.7452 336.589 60.5128L336.589 16.7211C336.589 -13.1542 361.602 -36.9428 391.44 -35.4446C426.089 -33.7049 449.445 0.70858 438.266 33.5511L414.226 104.18C402.017 140.048 435.103 174.873 471.549 164.515L484.066 160.958C507.79 154.216 531.378 172.035 531.378 196.698C531.378 219.416 511.171 236.815 488.705 233.441L459.384 229.038C453.291 228.123 447.089 228.075 441.021 229.142C426.393 231.714 407.657 235.97 407.657 239.849C407.657 242.921 366.451 254.328 323.829 265.225C284.482 275.285 243.198 259.533 219.858 226.296L214.524 218.701C201.29 199.856 180.486 187.729 157.567 185.5L126.317 182.461C96.6684 179.578 70.9914 202.879 70.9914 232.667L70.9914 234.762C70.9914 269.897 106.847 293.641 139.195 279.926C163.824 269.484 175.546 241.236 165.546 216.424L121.454 107.023C105.801 68.1858 121.621 23.7764 158.302 3.58169L163.939 0.47841C182.706 -9.85357 205.186 -10.9641 224.879 -2.53199L232.117 0.56707C261.38 13.0962 276.104 46.0072 265.944 76.1742C256.886 103.067 230.492 120.172 202.246 117.456L170.84 114.436C161.043 113.494 151.437 111.123 142.328 107.397L73.0954 79.08C38.6815 65.0044 -0.768178 79.789 -17.4547 113.016" stroke="#EA0B8D" stroke-opacity="0.6" stroke-width="20.7498"/>
<path d="M-3.18652 30.7865L34.0578 16.7827C52.0998 9.99887 67.8952 -1.67691 79.6729 -16.9354L125.722 -76.5938" stroke="#EA0B8D" stroke-opacity="0.6" stroke-width="20.7498"/>
<path d="M176.778 -74.9592L215.236 12.5421C229.876 45.851 262.82 67.3575 299.204 67.3575L316.206 67.3575C334.88 67.3575 352.426 58.419 363.404 43.313C372.936 30.1969 376.58 13.7058 373.463 -2.20565L345.93 -142.734" stroke="#EA0B8D" stroke-opacity="0.6" stroke-width="20.7498"/>
<path d="M-8.12742 125.201L57.9305 141.953C83.8073 148.515 103.604 169.373 108.805 195.558L111.897 211.123C114.222 222.827 121.953 232.738 132.738 237.843C158.21 249.899 161.922 284.625 139.574 301.792L92.2498 338.146" stroke="#EA0B8D" stroke-opacity="0.6" stroke-width="20.7498"/>
<path d="M59 18.1875C59 12.0092 64.2573 7.00006 70.7422 7C75.1617 7.00005 79.009 9.32796 81.0127 12.7656H83.9551C85.9586 9.3277 89.8068 7.00008 94.2266 7C98.6464 7 102.494 9.32777 104.497 12.7656H107.438C109.441 9.32745 113.29 7.00005 117.71 7C122.129 7.00011 125.976 9.32805 127.979 12.7656H130.922C132.925 9.3278 136.773 7.00017 141.192 7C145.612 7 149.459 9.32794 151.463 12.7656H154.406C156.41 9.32768 160.258 7.00005 164.678 7C168.635 7.00012 172.132 8.86766 174.259 11.7256C176.386 8.86732 179.884 7 183.842 7C184.58 7.00003 185.302 7.06917 186.002 7.19336C186.702 7.0692 187.424 7 188.162 7C192.119 7.00006 195.616 8.8678 197.743 11.7256C199.87 8.86734 203.369 7.00002 207.326 7C208.064 7.00003 208.786 7.06822 209.486 7.19238C210.187 7.06824 210.908 7.00002 211.646 7C215.603 7 219.1 8.86714 221.228 11.7246C223.355 8.867 226.853 7 230.81 7C231.548 7.00005 232.269 7.06917 232.97 7.19336C233.67 7.06908 234.392 7.00003 235.131 7C239.088 7 242.585 8.867 244.712 11.7246C246.839 8.86697 250.337 7 254.294 7C254.574 7.00002 254.852 7.01382 255.127 7.03223C255.403 7.01367 255.682 7 255.964 7C256.412 7.00002 256.854 7.02666 257.289 7.07324C257.724 7.02667 258.166 7 258.614 7C262.571 7.00003 266.068 8.86716 268.195 11.7246C270.323 8.867 273.82 7 277.777 7C278.058 7.00002 278.336 7.01373 278.612 7.03223C278.888 7.01372 279.167 7 279.448 7C283.868 7.00009 287.716 9.32774 289.719 12.7656H290.99C292.994 9.32779 296.842 7 301.262 7C301.543 7.00002 301.821 7.01373 302.097 7.03223C302.372 7.01376 302.651 7 302.932 7C307.351 7.00021 311.198 9.32787 313.201 12.7656H314.475C316.478 9.3278 320.326 7.00002 324.746 7C325.027 7.00002 325.305 7.01378 325.58 7.03223C325.856 7.01379 326.134 7 326.414 7C330.833 7.00009 334.68 9.32816 336.684 12.7656H337.959C339.963 9.32784 343.811 7.00009 348.23 7C348.511 7.00002 348.788 7.01382 349.063 7.03223C349.34 7.01372 349.618 7 349.899 7C354.319 7.00024 358.166 9.32806 360.169 12.7656H361.441C363.445 9.32756 367.294 7 371.714 7C371.994 7.00002 372.272 7.01378 372.548 7.03223C372.824 7.01372 373.103 7 373.384 7C377.803 7.00018 381.65 9.3282 383.653 12.7656H386.597C388.6 9.32774 392.448 7 396.868 7C401.288 7.00009 405.135 9.32774 407.139 12.7656H410.079C412.083 9.32751 415.932 7 420.352 7C424.771 7.00024 428.618 9.32806 430.621 12.7656H433.564C435.568 9.32774 439.416 7 443.836 7C450.321 7.00017 455.578 12.0093 455.578 18.1875C455.578 22.2713 453.279 25.8404 449.849 27.793V30.8525C453.279 32.805 455.578 36.3749 455.578 40.459C455.578 44.5428 453.279 48.1122 449.849 50.0645V53.123C453.279 55.0755 455.578 58.6454 455.578 62.7295C455.578 66.8134 453.279 70.3834 449.849 72.3359V75.3945C453.279 77.3468 455.578 80.916 455.578 85C455.578 89.084 453.279 92.6539 449.849 94.6064V97.665C453.279 99.6173 455.578 103.187 455.578 107.271C455.578 111.354 453.279 114.924 449.849 116.876V119.937C453.279 121.889 455.578 125.458 455.578 129.542C455.578 133.626 453.279 137.195 449.849 139.147V142.208C453.279 144.16 455.578 147.73 455.578 151.813C455.578 157.992 450.321 163 443.836 163C439.329 163 435.417 160.58 433.448 157.03H430.737C428.769 160.58 424.858 163 420.352 163C415.845 163 411.932 160.58 409.964 157.03H407.254C405.286 160.58 401.375 163 396.868 163C392.361 163 388.449 160.58 386.48 157.03H383.77C381.801 160.579 377.89 163 373.384 163C373.103 163 372.824 162.987 372.548 162.969C372.272 162.987 371.994 163 371.714 163C367.207 163 363.295 160.58 361.326 157.03H360.285C358.317 160.58 354.406 163 349.899 163C349.618 163 349.34 162.987 349.063 162.969C348.788 162.987 348.511 163 348.23 163C343.724 163 339.811 160.58 337.843 157.03H336.8C334.831 160.58 330.921 163 326.414 163C326.134 163 325.856 162.987 325.58 162.969C325.305 162.987 325.027 163 324.746 163C320.239 163 316.327 160.58 314.358 157.03H313.315C311.347 160.579 307.438 163 302.932 163C302.651 163 302.372 162.987 302.097 162.969C301.821 162.987 301.543 163 301.262 163C296.755 163 292.842 160.58 290.874 157.03H289.834C287.866 160.58 283.955 163 279.448 163C279.167 163 278.888 162.987 278.612 162.969C278.336 162.987 278.058 163 277.777 163C273.821 163 270.323 161.134 268.195 158.276C266.068 161.133 262.571 163 258.614 163C258.166 163 257.724 162.974 257.289 162.928C256.854 162.974 256.412 163 255.964 163C255.682 163 255.403 162.987 255.127 162.969C254.852 162.987 254.574 163 254.294 163C250.337 163 246.838 161.134 244.711 158.276C242.584 161.133 239.087 163 235.131 163C234.392 163 233.67 162.932 232.97 162.808C232.269 162.932 231.548 163 230.81 163C226.853 163 223.355 161.134 221.228 158.276C219.1 161.133 215.603 163 211.646 163C210.908 163 210.187 162.933 209.486 162.809C208.786 162.933 208.064 163 207.326 163C203.369 163 199.871 161.134 197.743 158.276C195.616 161.133 192.119 163 188.162 163C187.424 163 186.702 162.932 186.002 162.808C185.302 162.932 184.58 163 183.842 163C179.885 163 176.386 161.134 174.259 158.276C172.132 161.134 168.634 163 164.678 163C160.171 163 156.258 160.58 154.29 157.03H151.579C149.611 160.58 145.699 163 141.192 163C136.686 163 132.775 160.58 130.807 157.03H128.095C126.126 160.579 122.216 163 117.71 163C113.203 163 109.291 160.58 107.322 157.03H104.612C102.644 160.58 98.7333 163 94.2266 163C89.7197 163 85.8072 160.58 83.8389 157.03H81.1289C79.1605 160.58 75.2489 163 70.7422 163C64.2574 163 59.0002 157.992 59 151.813C59 147.489 61.5769 143.74 65.3467 141.879V139.477C61.577 137.615 59.0001 133.867 59 129.542C59 125.217 61.5769 121.469 65.3467 119.607V117.205C61.577 115.344 59.0001 111.595 59 107.271C59 102.946 61.5768 99.197 65.3467 97.3359V94.9355C61.5769 93.0742 59.0001 89.3247 59 85C59 80.6753 61.5768 76.9265 65.3467 75.0654V72.665C61.5769 70.8036 59.0001 67.0541 59 62.7295C59 58.4048 61.5769 54.6555 65.3467 52.7939V50.3936C61.577 48.5322 59.0002 44.7835 59 40.459C59 36.1344 61.577 32.3858 65.3467 30.5244V28.1221C61.5771 26.2606 59.0002 22.512 59 18.1875Z" fill="#300759"/>
<g clip-path="url(#clip1_3090_35348)">
<path d="M155 18.1875C155 12.0092 160.257 7.00006 166.742 7C171.162 7.00005 175.009 9.32796 177.013 12.7656H179.955C181.959 9.3277 185.807 7.00008 190.227 7C194.646 7 198.494 9.32777 200.497 12.7656H203.438C205.441 9.32745 209.29 7.00005 213.71 7C218.129 7.00011 221.976 9.32805 223.979 12.7656H226.922C228.925 9.3278 232.773 7.00017 237.192 7C241.612 7 245.459 9.32794 247.463 12.7656H250.406C252.41 9.32768 256.258 7.00005 260.678 7C264.635 7.00012 268.132 8.86766 270.259 11.7256C272.386 8.86732 275.884 7 279.842 7C280.58 7.00003 281.302 7.06917 282.002 7.19336C282.702 7.0692 283.424 7 284.162 7C288.119 7.00006 291.616 8.8678 293.743 11.7256C295.87 8.86734 299.369 7.00002 303.326 7C304.064 7.00003 304.786 7.06822 305.486 7.19238C306.187 7.06824 306.908 7.00002 307.646 7C311.603 7 315.1 8.86714 317.228 11.7246C319.355 8.867 322.853 7 326.81 7C327.548 7.00005 328.269 7.06917 328.97 7.19336C329.67 7.06908 330.392 7.00003 331.131 7C335.088 7 338.585 8.867 340.712 11.7246C342.839 8.86697 346.337 7 350.294 7C350.574 7.00002 350.852 7.01382 351.127 7.03223C351.403 7.01367 351.682 7 351.964 7C352.412 7.00002 352.854 7.02666 353.289 7.07324C353.724 7.02667 354.166 7 354.614 7C358.571 7.00003 362.068 8.86716 364.195 11.7246C366.323 8.867 369.82 7 373.777 7C374.058 7.00002 374.336 7.01373 374.612 7.03223C374.888 7.01372 375.167 7 375.448 7C379.868 7.00009 383.716 9.32774 385.719 12.7656H386.99C388.994 9.32779 392.842 7 397.262 7C397.543 7.00002 397.821 7.01373 398.097 7.03223C398.372 7.01376 398.651 7 398.932 7C403.351 7.00021 407.198 9.32787 409.201 12.7656H410.475C412.478 9.3278 416.326 7.00002 420.746 7C421.027 7.00002 421.305 7.01378 421.58 7.03223C421.856 7.01379 422.134 7 422.414 7C426.833 7.00009 430.68 9.32816 432.684 12.7656H433.959C435.963 9.32784 439.811 7.00009 444.23 7C444.511 7.00002 444.788 7.01382 445.063 7.03223C445.34 7.01372 445.618 7 445.899 7C450.319 7.00024 454.166 9.32806 456.169 12.7656H457.441C459.445 9.32756 463.294 7 467.714 7C467.994 7.00002 468.272 7.01378 468.548 7.03223C468.824 7.01372 469.103 7 469.384 7C473.803 7.00018 477.65 9.3282 479.653 12.7656H482.597C484.6 9.32774 488.448 7 492.868 7C497.288 7.00009 501.135 9.32774 503.139 12.7656H506.079C508.083 9.32751 511.932 7 516.352 7C520.771 7.00024 524.618 9.32806 526.621 12.7656H529.564C531.568 9.32774 535.416 7 539.836 7C546.321 7.00017 551.578 12.0093 551.578 18.1875C551.578 22.2713 549.279 25.8404 545.849 27.793V30.8525C549.279 32.805 551.578 36.3749 551.578 40.459C551.578 44.5428 549.279 48.1122 545.849 50.0645V53.123C549.279 55.0755 551.578 58.6454 551.578 62.7295C551.578 66.8134 549.279 70.3834 545.849 72.3359V75.3945C549.279 77.3468 551.578 80.916 551.578 85C551.578 89.084 549.279 92.6539 545.849 94.6064V97.665C549.279 99.6173 551.578 103.187 551.578 107.271C551.578 111.354 549.279 114.924 545.849 116.876V119.937C549.279 121.889 551.578 125.458 551.578 129.542C551.578 133.626 549.279 137.195 545.849 139.147V142.208C549.279 144.16 551.578 147.73 551.578 151.813C551.578 157.992 546.321 163 539.836 163C535.329 163 531.417 160.58 529.448 157.03H526.737C524.769 160.58 520.858 163 516.352 163C511.845 163 507.932 160.58 505.964 157.03H503.254C501.286 160.58 497.375 163 492.868 163C488.361 163 484.449 160.58 482.48 157.03H479.77C477.801 160.579 473.89 163 469.384 163C469.103 163 468.824 162.987 468.548 162.969C468.272 162.987 467.994 163 467.714 163C463.207 163 459.295 160.58 457.326 157.03H456.285C454.317 160.58 450.406 163 445.899 163C445.618 163 445.34 162.987 445.063 162.969C444.788 162.987 444.511 163 444.23 163C439.724 163 435.811 160.58 433.843 157.03H432.8C430.831 160.58 426.921 163 422.414 163C422.134 163 421.856 162.987 421.58 162.969C421.305 162.987 421.027 163 420.746 163C416.239 163 412.327 160.58 410.358 157.03H409.315C407.347 160.579 403.438 163 398.932 163C398.651 163 398.372 162.987 398.097 162.969C397.821 162.987 397.543 163 397.262 163C392.755 163 388.842 160.58 386.874 157.03H385.834C383.866 160.58 379.955 163 375.448 163C375.167 163 374.888 162.987 374.612 162.969C374.336 162.987 374.058 163 373.777 163C369.821 163 366.323 161.134 364.195 158.276C362.068 161.133 358.571 163 354.614 163C354.166 163 353.724 162.974 353.289 162.928C352.854 162.974 352.412 163 351.964 163C351.682 163 351.403 162.987 351.127 162.969C350.852 162.987 350.574 163 350.294 163C346.337 163 342.838 161.134 340.711 158.276C338.584 161.133 335.087 163 331.131 163C330.392 163 329.67 162.932 328.97 162.808C328.269 162.932 327.548 163 326.81 163C322.853 163 319.355 161.134 317.228 158.276C315.1 161.133 311.603 163 307.646 163C306.908 163 306.187 162.933 305.486 162.809C304.786 162.933 304.064 163 303.326 163C299.369 163 295.871 161.134 293.743 158.276C291.616 161.133 288.119 163 284.162 163C283.424 163 282.702 162.932 282.002 162.808C281.302 162.932 280.58 163 279.842 163C275.885 163 272.386 161.134 270.259 158.276C268.132 161.134 264.634 163 260.678 163C256.171 163 252.258 160.58 250.29 157.03H247.579C245.611 160.58 241.699 163 237.192 163C232.686 163 228.775 160.58 226.807 157.03H224.095C222.126 160.579 218.216 163 213.71 163C209.203 163 205.291 160.58 203.322 157.03H200.612C198.644 160.58 194.733 163 190.227 163C185.72 163 181.807 160.58 179.839 157.03H177.129C175.16 160.58 171.249 163 166.742 163C160.257 163 155 157.992 155 151.813C155 147.489 157.577 143.74 161.347 141.879V139.477C157.577 137.615 155 133.867 155 129.542C155 125.217 157.577 121.469 161.347 119.607V117.205C157.577 115.344 155 111.595 155 107.271C155 102.946 157.577 99.197 161.347 97.3359V94.9355C157.577 93.0742 155 89.3247 155 85C155 80.6753 157.577 76.9265 161.347 75.0654V72.665C157.577 70.8036 155 67.0541 155 62.7295C155 58.4048 157.577 54.6555 161.347 52.7939V50.3936C157.577 48.5322 155 44.7835 155 40.459C155 36.1344 157.577 32.3858 161.347 30.5244V28.1221C157.577 26.2606 155 22.512 155 18.1875Z" fill="#300759"/>
</g>
</g>
<defs>
<clipPath id="clip0_3090_35348">
<rect width="613" height="169" rx="16" fill="white"/>
</clipPath>
<clipPath id="clip1_3090_35348">
<rect width="118" height="156" fill="white" transform="translate(434 7)"/>
</clipPath>
</defs>
</svg>
